<svg aria-hidden="true" style="position: absolute; width: 0; height: 0; overflow: hidden;" version="1.1" xmlns="http://www.w3.org/2000/svg" xmlns:xlink="http://www.w3.org/1999/xlink">
<defs>
<symbol id="icon-CBD" viewBox="0 0 90 32">
<path fill="#da9d27" style="fill: var(--color1, #da9d27)" d="M15.954 31.798c-3.312 0-6.144-0.654-8.497-1.961s-4.169-3.137-5.447-5.49c-1.249-2.382-1.874-5.185-1.874-8.41 0-2.411 0.349-4.575 1.046-6.493 0.726-1.946 1.772-3.602 3.137-4.968 1.365-1.394 3.021-2.469 4.967-3.224 1.975-0.755 4.198-1.133 6.667-1.133 1.452 0 2.919 0.189 4.401 0.566 1.511 0.349 2.818 0.857 3.922 1.525 0.726 0.407 1.22 0.915 1.482 1.525s0.334 1.22 0.218 1.83c-0.087 0.61-0.334 1.133-0.741 1.569-0.378 0.436-0.857 0.712-1.438 0.828s-1.235-0.014-1.961-0.392c-0.872-0.523-1.787-0.901-2.745-1.133s-1.932-0.349-2.919-0.349c-1.946 0-3.588 0.392-4.924 1.176-1.307 0.755-2.295 1.859-2.963 3.312s-1.002 3.239-1.002 5.36c0 2.092 0.334 3.878 1.002 5.36s1.656 2.614 2.963 3.399c1.336 0.755 2.978 1.133 4.924 1.133 0.93 0 1.874-0.116 2.832-0.349 0.988-0.232 1.932-0.596 2.832-1.089 0.755-0.378 1.423-0.508 2.004-0.392 0.61 0.087 1.104 0.349 1.482 0.784 0.407 0.407 0.654 0.901 0.741 1.482 0.116 0.581 0.058 1.162-0.174 1.743s-0.668 1.075-1.307 1.482c-1.075 0.726-2.397 1.293-3.965 1.699s-3.123 0.61-4.662 0.61zM34.368 31.319c-1.133 0-2.004-0.305-2.614-0.915s-0.915-1.482-0.915-2.614v-23.661c0-1.133 0.305-2.004 0.915-2.614s1.482-0.915 2.614-0.915h10.545c2.179 0 4.038 0.32 5.578 0.959s2.702 1.554 3.486 2.745c0.813 1.191 1.22 2.614 1.22 4.27 0 1.83-0.523 3.384-1.569 4.662s-2.484 2.135-4.314 2.571v-0.697c2.121 0.378 3.762 1.22 4.924 2.527 1.191 1.278 1.787 2.949 1.787 5.011 0 2.731-0.944 4.866-2.832 6.405-1.888 1.511-4.488 2.266-7.8 2.266h-11.024zM37.288 26.308h7.19c1.743 0 3.021-0.334 3.835-1.002 0.813-0.697 1.22-1.714 1.22-3.050s-0.407-2.339-1.22-3.007c-0.813-0.668-2.092-1.002-3.835-1.002h-7.19v8.061zM37.288 13.236h6.449c1.685 0 2.934-0.32 3.747-0.959s1.22-1.598 1.22-2.876c0-1.249-0.407-2.193-1.22-2.832s-2.063-0.959-3.747-0.959h-6.449v7.626zM64.666 31.319c-1.133 0-2.004-0.305-2.614-0.915s-0.915-1.482-0.915-2.614v-23.661c0-1.133 0.305-2.004 0.915-2.614s1.482-0.915 2.614-0.915h8.497c5.258 0 9.311 1.336 12.157 4.009 2.876 2.644 4.314 6.42 4.314 11.329 0 2.469-0.378 4.662-1.133 6.58-0.726 1.888-1.787 3.486-3.181 4.793s-3.108 2.309-5.142 3.007c-2.034 0.668-4.372 1.002-7.016 1.002h-8.497zM67.89 25.785h4.88c1.656 0 3.094-0.203 4.314-0.61s2.237-1.017 3.050-1.83c0.814-0.813 1.424-1.83 1.83-3.050 0.406-1.249 0.61-2.702 0.61-4.357 0-3.312-0.828-5.766-2.484-7.364-1.627-1.627-4.067-2.44-7.32-2.44h-4.88v19.652z"></path>
</symbol>
<symbol id="icon-close" viewBox="0 0 32 32">
<path d="M32 3.224l-3.224-3.224-12.776 12.776-12.776-12.776-3.224 3.224 12.776 12.776-12.776 12.776 3.224 3.224 12.776-12.776 12.776 12.776 3.224-3.224-12.776-12.776 12.776-12.776z"></path>
</symbol>
<symbol id="icon-google" viewBox="0 0 32 32">
<path d="M16.319 13.713v5.487h9.075c-0.369 2.356-2.744 6.9-9.075 6.9-5.463 0-9.919-4.525-9.919-10.1s4.456-10.1 9.919-10.1c3.106 0 5.188 1.325 6.375 2.469l4.344-4.181c-2.788-2.612-6.4-4.188-10.719-4.188-8.844 0-16 7.156-16 16s7.156 16 16 16c9.231 0 15.363-6.494 15.363-15.631 0-1.050-0.113-1.85-0.25-2.65l-15.113-0.006z"></path>
</symbol>
<symbol id="icon-facebook" viewBox="0 0 32 32">
<path d="M19 6h5v-6h-5c-3.86 0-7 3.14-7 7v3h-4v6h4v16h6v-16h5l1-6h-6v-3c0-0.542 0.458-1 1-1z"></path>
</symbol>
</defs>
</svg>
